Coordinates
version=1
nRows=32
nColumns=12
inDegrees=yes

Units are S.I. units (second, meters, Newtons, ...)
Angles are in degrees

endheader
time	SC_y	SC_z	SC_x	AC_y	AC_z	AC_x	GH_y	GH_z	GH_yy	EL_x	PS_y
       0.0              -40.02          28.67          2.812           50.5         -5.854          3.221          86.65           76.0           82.0          12.29          53.72
   0.02644              -40.02          28.67          2.816           50.5         -5.854          3.219          86.64          75.99          81.98           12.3          53.72
   0.05287              -40.02          28.67           2.82           50.5         -5.854          3.217          86.62          75.98          81.95           12.3          53.71
   0.07931              -40.02          28.67          2.825          50.49         -5.854          3.214          86.61          75.97          81.92           12.3          53.71
    0.1057              -40.02          28.67           2.83          50.49         -5.854          3.212          86.59          75.96          81.88          12.31          53.71
    0.1322              -40.03          28.67          2.835          50.49         -5.854          3.209          86.57          75.95          81.85          12.31           53.7
    0.1586              -40.03          28.67           2.84          50.49         -5.854          3.207          86.55          75.94          81.81          12.32           53.7
    0.1851              -40.03          28.67          2.846          50.49         -5.854          3.204          86.53          75.92          81.77          12.32          53.69
    0.2115              -40.04          28.67          2.852          50.48         -5.854          3.201          86.51          75.91          81.73          12.33          53.69
    0.2379              -40.04          28.67          2.859          50.48         -5.854          3.197          86.49          75.89          81.68          12.33          53.68
    0.2644              -40.04          28.67          2.866          50.48         -5.853          3.194          86.46          75.88          81.63          12.34          53.68
    0.2908              -40.05          28.67          2.874          50.47         -5.853           3.19          86.44          75.86          81.58          12.35          53.67
    0.3172              -40.05          28.67          2.882          50.47         -5.853          3.185          86.41          75.84          81.52          12.35          53.66
    0.3437              -40.05          28.67          2.891          50.47         -5.853          3.181          86.37          75.82          81.46          12.36          53.65
    0.3701              -40.06          28.67          2.901          50.46         -5.853          3.176          86.34           75.8          81.39          12.37          53.65
    0.3965              -40.06          28.67          2.912          50.46         -5.853          3.171           86.3          75.78          81.32          12.38          53.64
     0.423              -40.07          28.67          2.923          50.45         -5.853          3.165          86.26          75.75          81.24          12.39          53.63
    0.4494              -40.07          28.67          2.936          50.45         -5.852          3.158          86.22          75.72          81.15           12.4          53.62
    0.4759              -40.08          28.67          2.949          50.44         -5.852          3.152          86.17          75.69          81.06          12.41           53.6
    0.5023              -40.09          28.67          2.964          50.44         -5.852          3.144          86.12          75.66          80.95          12.42          53.59
    0.5287              -40.09          28.67          2.981          50.43         -5.852          3.136          86.06          75.63          80.84          12.44          53.58
    0.5552               -40.1          28.67          2.999          50.42         -5.851          3.127           86.0          75.58          80.71          12.45          53.56
    0.5816              -40.11          28.67          3.019          50.42         -5.851          3.116          85.93          75.54          80.57          12.47          53.54
     0.608              -40.12          28.67          3.041          50.41         -5.851          3.105          85.85          75.49          80.42          12.49          53.52
    0.6345              -40.13          28.67          3.066           50.4          -5.85          3.093          85.76          75.44          80.25          12.51           53.5
    0.6609              -40.15          28.67          3.093          50.39          -5.85          3.079          85.67          75.38          80.06          12.53          53.48
    0.6874              -40.16          28.67          3.124          50.37          -5.85          3.063          85.56          75.31          79.85          12.56          53.45
    0.7138              -40.18          28.67          3.159          50.36         -5.849          3.046          85.44          75.23          79.61          12.59          53.42
    0.7402              -40.19          28.67          3.198          50.35         -5.848          3.026           85.3          75.15          79.34          12.62          53.39
    0.7667              -40.22          28.67          3.242          50.33         -5.848          3.004          85.15          75.05          79.03          12.66          53.35
    0.7931              -40.24          28.67          3.293          50.31         -5.847          2.978          84.97          74.93          78.68           12.7          53.31
    0.8195              -40.27          28.67          3.351          50.28         -5.846          2.949          84.77          74.81          78.28          12.75          53.26
